<svg width="106" height="81" viewBox="0 0 106 81" fill="none" xmlns="http://www.w3.org/2000/svg">
<path d="M38.7632 31.6254C38.7632 34.3107 37.7162 36.886 35.8526 38.7848C33.9889 40.6836 31.4613 41.7504 28.8257 41.7504C26.1901 41.7504 23.6625 40.6836 21.7988 38.7848C19.9352 36.886 18.8882 34.3107 18.8882 31.6254C18.8882 28.94 19.9352 26.3647 21.7988 24.4659C23.6625 22.5671 26.1901 21.5004 28.8257 21.5004C31.4613 21.5004 33.9889 22.5671 35.8526 24.4659C37.7162 26.3647 38.7632 28.94 38.7632 31.6254V31.6254Z" fill="#DDDDDD"/>
<path d="M9.9375 0C7.30191 0 4.77427 1.06674 2.91063 2.96554C1.04698 4.86435 0 7.43968 0 10.125L0 70.875C0 73.5603 1.04698 76.1357 2.91063 78.0345C4.77427 79.9333 7.30191 81 9.9375 81H96.0625C98.6981 81 101.226 79.9333 103.089 78.0345C104.953 76.1357 106 73.5603 106 70.875V10.125C106 7.43968 104.953 4.86435 103.089 2.96554C101.226 1.06674 98.6981 0 96.0625 0H9.9375ZM96.0625 6.75C96.941 6.75 97.7836 7.10558 98.4048 7.73852C99.026 8.37145 99.375 9.22989 99.375 10.125V50.625L74.3656 37.4827C73.7444 37.1657 73.0409 37.0557 72.3549 37.1683C71.6689 37.281 71.035 37.6106 70.543 38.1105L45.9643 63.153L28.3417 51.192C27.7055 50.7604 26.9423 50.5663 26.1816 50.6426C25.4209 50.7188 24.7095 51.0608 24.168 51.6105L6.63825 67.5V71.145C6.63033 71.0552 6.62591 70.9651 6.625 70.875V10.125C6.625 9.22989 6.97399 8.37145 7.59521 7.73852C8.21642 7.10558 9.05897 6.75 9.9375 6.75H96.0625Z" fill="#DDDDDD"/>
</svg>
